<?xml version="1.0" encoding="UTF-8"?>
<svg id="Layer_1" xmlns="http://www.w3.org/2000/svg" version="1.1" viewBox="0 0 151.67 93.64">
  <!-- Generator: Adobe Illustrator 30.1.0, SVG Export Plug-In . SVG Version: 2.1.1 Build 136)  -->
  <defs>
    <style>
      .st0 {
        fill: #0b4977;
      }

      .st1 {
        fill: #fff;
      }

      .st2 {
        fill: #45c5e0;
      }

      .st3 {
        fill: #fe76f7;
      }
    </style>
  </defs>
  <path class="st2" d="M99.27,52.24c0,21.7-17.59,39.29-39.29,39.29-9.42,0-18.06-3.31-24.83-8.84-12.73,5.34-18.39,3.31-21.81.89-1.37-.97-1.02-3.09.58-3.58,7.2-2.23,12.09-7.68,12.21-7.81-3.45-5.85-5.44-12.67-5.44-19.95,0-21.7,17.59-39.29,39.29-39.29s39.29,17.59,39.29,39.29Z"/>
  <path class="st0" d="M79.11,87.71c6.67-3.73,12.34-9.04,16.52-15.5,4.89-7.56,7.47-16.34,7.47-25.39s-2.58-17.82-7.47-25.39c-1.99-3.08-4.32-5.89-6.93-8.39-2.87-2.76-6.09-5.15-9.59-7.1l-3.49-1.76C69.53,1.4,63.03,0,56.28,0,43.77,0,32.02,4.87,23.17,13.71c-8.84,8.84-13.71,20.6-13.71,33.11,0,8,2.04,15.85,5.91,22.78-1.75,1.72-6.47,5.89-12.67,7.82-1.41.44-2.42,1.61-2.66,3.06-.23,1.45.37,2.87,1.56,3.71,2.79,1.98,5.77,2.97,9.36,3.12,4.56.19,9.94-1.01,16.43-3.65,3.91,3.07,8.25,5.48,12.91,7.18,5.11,1.86,10.49,2.8,15.98,2.8,6.75,0,13.25-1.4,19.34-4.17,0,0,3.49-1.76,3.49-1.76ZM2.99,80.95c.03-.16.13-.54.59-.68,8.66-2.68,14.51-9.17,14.76-9.44l.73-.81-.55-.94c-3.97-6.71-6.06-14.41-6.06-22.26,0-11.71,4.56-22.72,12.84-31C33.57,7.54,44.58,2.98,56.28,2.98c6.54,0,12.83,1.41,18.7,4.18h0c3.54,1.67,6.83,3.81,9.78,6.33,3.22,2.75,6.04,5.97,8.36,9.56,4.58,7.08,7,15.3,7,23.77s-2.42,16.69-7,23.77c-4.46,6.9-10.73,12.39-18.14,15.89h0c-5.87,2.77-12.16,4.18-18.7,4.18-5.14,0-10.17-.88-14.96-2.62-4.63-1.68-8.91-4.12-12.74-7.24l-.69-.57-.83.35c-14.14,5.93-20.11,3.75-23.73,1.19-.38-.27-.36-.65-.34-.81h0Z"/>
  <path class="st3" d="M52.4,52.24c0,21.7,17.59,39.29,39.29,39.29,9.42,0,18.06-3.31,24.83-8.84,12.73,5.34,18.39,3.31,21.81.89,1.37-.97,1.02-3.09-.58-3.58-7.2-2.23-12.09-7.68-12.21-7.81,3.45-5.85,5.44-12.67,5.44-19.95,0-21.7-17.59-39.29-39.29-39.29s-39.29,17.59-39.29,39.29Z"/>
  <path class="st0" d="M76.05,89.47c6.09,2.77,12.59,4.17,19.34,4.17,5.49,0,10.87-.94,15.98-2.8,4.66-1.69,9-4.1,12.91-7.18,6.49,2.64,11.87,3.84,16.43,3.65,3.59-.15,6.57-1.14,9.36-3.12,1.19-.84,1.79-2.27,1.56-3.71-.23-1.45-1.25-2.63-2.66-3.06-6.2-1.92-10.92-6.1-12.67-7.82,3.87-6.93,5.91-14.79,5.91-22.78,0-12.51-4.87-24.26-13.71-33.11C119.65,4.87,107.9,0,95.39,0,88.64,0,82.14,1.4,76.05,4.17l-3.49,1.76c-3.5,1.95-6.71,4.35-9.59,7.1-2.61,2.51-4.94,5.32-6.93,8.39-4.89,7.56-7.47,16.34-7.47,25.39s2.58,17.82,7.47,25.39c4.18,6.46,9.85,11.77,16.52,15.5l3.49,1.76h0ZM148.34,81.76c-3.62,2.56-9.59,4.75-23.73-1.19l-.83-.35-.69.57c-3.83,3.13-8.12,5.56-12.74,7.24-4.79,1.74-9.82,2.62-14.96,2.62-6.54,0-12.83-1.41-18.7-4.18h0c-7.41-3.5-13.68-9-18.14-15.89-4.58-7.08-7-15.3-7-23.77s2.42-16.69,7-23.77c2.33-3.6,5.15-6.81,8.36-9.56,2.95-2.52,6.23-4.65,9.78-6.33h0c5.87-2.77,12.16-4.18,18.7-4.18,11.71,0,22.72,4.56,31,12.84,8.28,8.28,12.84,19.29,12.84,31,0,7.85-2.1,15.54-6.06,22.26l-.55.94.73.81c.24.27,6.1,6.76,14.76,9.44.46.14.57.52.59.68.02.15.04.54-.34.81h-.02Z"/>
  <rect class="st1" x="44.02" y="38.69" width="64.07" height="16.27" rx="7.71" ry="7.71"/>
  <path class="st0" d="M99.95,56.2h-47.8c-5.17,0-9.38-4.21-9.38-9.38s4.21-9.38,9.38-9.38h47.8c5.17,0,9.38,4.21,9.38,9.38s-4.21,9.38-9.38,9.38ZM52.15,39.93c-3.8,0-6.89,3.09-6.89,6.89s3.09,6.89,6.89,6.89h47.8c3.8,0,6.89-3.09,6.89-6.89s-3.09-6.89-6.89-6.89c0,0-47.8,0-47.8,0Z"/>
  <circle class="st0" cx="58.65" cy="46.82" r="4.91"/>
  <circle class="st0" cx="76.05" cy="46.82" r="4.91"/>
  <circle class="st0" cx="93.46" cy="46.82" r="4.91"/>
</svg>