<?xml version="1.0" encoding="UTF-8"?>
<svg id="Layer_1" xmlns="http://www.w3.org/2000/svg" version="1.1" viewBox="0 0 108.9 93.64">
  <!-- Generator: Adobe Illustrator 30.1.0, SVG Export Plug-In . SVG Version: 2.1.1 Build 136)  -->
  <defs>
    <style>
      .st0 {
        fill: #0b4977;
      }

      .st1 {
        fill: #fff;
      }

      .st2 {
        fill: #fe76f7;
      }
    </style>
  </defs>
  <path class="st2" d="M9.62,52.24c0,21.7,17.59,39.29,39.29,39.29,9.42,0,18.06-3.31,24.83-8.84,12.73,5.34,18.39,3.31,21.81.89,1.37-.97,1.02-3.09-.58-3.58-7.2-2.23-12.09-7.68-12.21-7.81,3.45-5.85,5.44-12.67,5.44-19.95,0-21.7-17.59-39.29-39.29-39.29S9.62,30.54,9.62,52.24Z"/>
  <path class="st0" d="M33.28,89.47c6.09,2.77,12.59,4.17,19.34,4.17,5.49,0,10.87-.94,15.98-2.8,4.66-1.69,9-4.1,12.91-7.18,6.49,2.64,11.87,3.84,16.43,3.65,3.59-.15,6.57-1.14,9.36-3.12,1.19-.84,1.79-2.27,1.56-3.71-.23-1.45-1.25-2.63-2.66-3.06-6.2-1.92-10.92-6.1-12.67-7.82,3.87-6.93,5.91-14.79,5.91-22.78,0-12.51-4.87-24.26-13.71-33.11C76.88,4.87,65.12,0,52.61,0,45.86,0,39.36,1.4,33.27,4.17l-3.49,1.76c-3.5,1.95-6.71,4.35-9.59,7.1-2.61,2.51-4.94,5.32-6.93,8.39-4.89,7.56-7.47,16.34-7.47,25.39s2.58,17.82,7.47,25.39c4.18,6.46,9.85,11.77,16.52,15.5l3.49,1.76h0ZM105.57,81.76c-3.62,2.56-9.59,4.75-23.73-1.19l-.83-.35-.69.57c-3.83,3.13-8.12,5.56-12.74,7.24-4.79,1.74-9.82,2.62-14.96,2.62-6.54,0-12.83-1.41-18.7-4.18h0c-7.41-3.5-13.68-9-18.14-15.89-4.58-7.08-7-15.3-7-23.77s2.42-16.69,7-23.77c2.33-3.6,5.15-6.81,8.36-9.56,2.95-2.52,6.23-4.65,9.78-6.33h0c5.87-2.77,12.16-4.18,18.7-4.18,11.71,0,22.72,4.56,31,12.84,8.28,8.28,12.84,19.29,12.84,31,0,7.85-2.1,15.54-6.06,22.26l-.55.94.73.81c.24.27,6.1,6.76,14.76,9.44.46.14.57.52.59.68.02.15.04.54-.34.81h-.02Z"/>
  <rect class="st1" x="1.24" y="38.69" width="64.07" height="16.27" rx="7.71" ry="7.71"/>
  <path class="st0" d="M57.18,56.2H9.38c-5.17,0-9.38-4.21-9.38-9.38s4.21-9.38,9.38-9.38h47.8c5.17,0,9.38,4.21,9.38,9.38s-4.21,9.38-9.38,9.38ZM9.38,39.93c-3.8,0-6.89,3.09-6.89,6.89s3.09,6.89,6.89,6.89h47.8c3.8,0,6.89-3.09,6.89-6.89s-3.09-6.89-6.89-6.89H9.38Z"/>
  <circle class="st0" cx="15.87" cy="46.82" r="4.91"/>
  <circle class="st0" cx="33.28" cy="46.82" r="4.91"/>
  <circle class="st0" cx="50.69" cy="46.82" r="4.91"/>
</svg>