<?xml version="1.0" encoding="UTF-8"?>
<svg id="Layer_1" data-name="Layer 1" xmlns="http://www.w3.org/2000/svg" viewBox="0 0 103.11 93.64">
  <defs>
    <style>
      .cls-1 {
        fill: #0b4977;
      }

      .cls-2 {
        fill: #45c5e0;
      }
    </style>
  </defs>
  <path class="cls-2" d="M99.27,52.24c0,21.7-17.59,39.29-39.29,39.29-9.42,0-18.06-3.31-24.83-8.84-12.73,5.34-18.39,3.31-21.81.89-1.37-.97-1.02-3.09.58-3.58,7.2-2.23,12.09-7.68,12.21-7.81-3.45-5.85-5.44-12.67-5.44-19.95,0-21.7,17.59-39.29,39.29-39.29s39.29,17.59,39.29,39.29Z"/>
  <path class="cls-1" d="M79.11,87.71c6.67-3.73,12.34-9.04,16.52-15.5,4.89-7.56,7.47-16.34,7.47-25.39s-2.58-17.82-7.47-25.39c-1.99-3.08-4.32-5.89-6.93-8.39-2.87-2.76-6.09-5.15-9.59-7.1l-3.49-1.76C69.53,1.4,63.03,0,56.28,0c-12.51,0-24.26,4.87-33.11,13.71-8.84,8.84-13.71,20.6-13.71,33.11,0,8,2.04,15.85,5.91,22.78-1.75,1.72-6.47,5.89-12.67,7.82-1.41.44-2.42,1.61-2.66,3.06-.23,1.45.37,2.87,1.56,3.71,2.79,1.98,5.77,2.97,9.36,3.12,4.56.19,9.94-1.01,16.43-3.65,3.91,3.07,8.25,5.48,12.91,7.18,5.11,1.86,10.49,2.8,15.98,2.8,6.75,0,13.25-1.4,19.34-4.17l3.49-1.76ZM2.99,80.95c.03-.16.13-.54.59-.68,8.66-2.68,14.51-9.17,14.76-9.44l.73-.81-.55-.94c-3.97-6.71-6.06-14.41-6.06-22.26,0-11.71,4.56-22.72,12.84-31C33.57,7.54,44.58,2.98,56.28,2.98c6.54,0,12.83,1.41,18.7,4.18h0c3.54,1.67,6.83,3.81,9.78,6.33,3.22,2.75,6.04,5.97,8.36,9.56,4.58,7.08,7,15.3,7,23.77s-2.42,16.69-7,23.77c-4.46,6.9-10.73,12.39-18.14,15.89h0c-5.87,2.77-12.16,4.18-18.7,4.18-5.14,0-10.17-.88-14.96-2.62-4.63-1.68-8.91-4.12-12.74-7.24l-.69-.57-.83.35c-14.14,5.93-20.11,3.75-23.73,1.19-.38-.27-.36-.65-.34-.81Z"/>
</svg>